<?xml version="1.0" encoding="iso-8859-1"?>
<!-- Generator: Adobe Illustrator 25.1.0, SVG Export Plug-In . SVG Version: 6.00 Build 0)  -->
<svg version="1.1" id="Layer_1" xmlns="http://www.w3.org/2000/svg" xmlns:xlink="http://www.w3.org/1999/xlink" x="0px" y="0px"
	 width="638.643px" height="417.983px" viewBox="0 0 638.643 417.983" enable-background="new 0 0 638.643 417.983"
	 xml:space="preserve">
<path d="M624.439,43.99c-10.162-2.589-20.791-1.949-31.174-1.577c-40.894,1.463-82.468-2.245-123.188,2.748
	c-20.289,2.488-38.22,3.614-53.909-12.057c-9.43-9.419-22.413-13.927-34.327-19.28C353.565,1.119,321.322-2.932,290.121,2.1
	c-26.007,4.195-49.861,17.445-73.628,28.437c-11.632,5.379-22.8,17.201-36.439,14.348C137.001,35.879,51.331,6.837,12.33,19.629
	C-5.36,25.432-1.577,44.983,8.482,56.73c6.66,7.777,14.749,14.049,22.569,20.076c12.447,9.592,20.617,23.342,27.323,36.642
	c28.115,55.762,59.268,53.019,106.599,74.06c-2.028,15.018,5.17,27.66,12.075,39.927c6.534,11.608-21.49,19.282-11.616,50.23
	c5.563,17.434-14.358,55.426,15.734,50.771c40.371-6.245,4.88,49.208,7.82,74.93c2.439,21.339,102.435,12.358,136.778,13.024
	c26.166,0.508,100.568,10.543,101.168-26.905c0.305-19.045-14.14-65.406-1.523-78.167c29.434-0.525,45.834-26.675,55.145-52.558
	c1.97-5.476,12.016-4.503,16.76-8.438c20.781-17.234-9.184-27.574-4.593-45.747c4.139-16.382-14.419-11.379-24.408-16.593
	c30.207-8.033,61.414-12.27,87.497-29.792c17.074-11.47,29.151-28.664,42.74-43.949C611.707,99.44,663.224,53.872,624.439,43.99z"/>
<path d="M180.497,148.583c-11.152-17.526-4.233-41.072-21.22-55.841c-27.464-25.531-68.8-23.983-98.701-45.591
	c29.464,3.571,57.677,16.989,86.568,24.4c12.915,3.981,23.101,11.704,31.325,22.338C192.848,110.272,178.79,129.894,180.497,148.583
	z M598.549,114.241c-13.589,15.285-25.666,32.479-42.74,43.949c-26.083,17.522-57.29,21.759-87.497,29.792
	c9.988,5.214,28.547,0.211,24.408,16.593c-4.592,18.173,25.373,28.513,4.593,45.747c-4.745,3.935-14.791,2.962-16.76,8.438
	c-9.311,25.883-25.711,52.033-55.145,52.558c-12.617,12.761,1.829,59.122,1.523,78.167c-0.6,37.447-75.002,27.412-101.168,26.905
	c-34.343-0.666-134.339,8.315-136.778-13.024c-2.94-25.722,32.551-81.176-7.82-74.93c-30.092,4.655-10.171-33.337-15.734-50.771
	c-9.874-30.948,18.15-38.622,11.616-50.23c-6.905-12.267-14.103-24.909-12.075-39.927c-47.331-21.041-78.483-18.298-106.599-74.06
	c-6.706-13.3-14.876-27.05-27.323-36.642c-7.82-6.027-15.91-12.299-22.569-20.076C-1.577,44.983-5.36,25.432,12.33,19.629
	C51.331,6.837,137.001,35.879,180.054,44.885c13.639,2.853,24.807-8.969,36.439-14.348C240.261,19.546,264.115,6.295,290.121,2.1
	c31.201-5.032,63.444-0.981,91.719,11.723c11.914,5.353,24.898,9.861,34.327,19.28c15.689,15.672,33.621,14.545,53.909,12.057
	c40.72-4.993,82.293-1.286,123.188-2.748c10.382-0.371,21.011-1.012,31.174,1.577C663.224,53.872,611.707,99.44,598.549,114.241z
	 M208.507,306.72c5.034,2.846,10.048,0.682,10.624-5.214c1.088-11.133-12.993-13.845-19.979-19.821
	c-6.999-5.987-11.328-8.486-20.802-30.443C168.7,276.561,188.22,295.25,208.507,306.72z M260.015,262.969
	c52.308,24.385,129.85-28.405,178.48-58.279c7.834-4.813,13.349-11.284,7.816-19.583c-4.415-6.622-15.332,4.263-22.108,4.861
	c-48.162,4.25-95.88,7.924-143.756,15.456C243.467,211.243,298.968,264.791,260.015,262.969z M270.201,199.471
	c-8.623,0-36.394,1.798-48.527,1.463c-6.466-0.178-17.329-1.595-24.663-7.822c-3.92-3.328-13.509-14.411-14.752-3.738
	c-4.451,38.228,44.281,63.172,78.094,66.33c7.281,0.68,7.169,0.367,5.846-6.941C263.246,232.446,256.182,212.998,270.201,199.471z
	 M226.355,286.773c-0.478,5.901-0.336,11.8-1.205,17.653c-0.382,2.575-2.45,6.354-0.542,7.448
	c16.496-1.704,23.333-23.717,23.585-37.927c0.221-12.454-1.77-15.492-14.8-17.347C224.17,255.286,226.87,280.415,226.355,286.773z
	 M221.607,263.626c0.078-4.022,1.835-10.025-4.684-12.563c-5.23-2.036-22.33-13.418-25.779-8.702
	c-11.806,16.147,10.625,34.69,24.304,41.79C222.873,288.005,221.509,268.682,221.607,263.626z M178.714,292.776
	c-4.56,8.761-4.315,36.074,9.912,25.476C200.025,309.761,186.013,299.701,178.714,292.776z M210.648,319.184
	c0.717-4.205-4.523-6.105-7.812-7.311c-5.294-1.942-5.28-1.53-5.787,4.759C196.291,326.034,209.033,328.649,210.648,319.184z
	 M272.271,387.267c-5.625-35.419,0.516-69.711,8.886-103.528c2.112-8.532-15.191-8.653-21.141-8.531
	c-4.037,0.083-5.422,5.045-6.548,8.046c-7.125,18.988-7.499,41.597-33.51,38.147c-3.57,8.502-15.235,39.913,3.383,36.914
	c13.984-2.252,16.776-16.055,29.359-21.563c-7.446,25.437-38.578,24.158-49.181,45.034c-13.371,26.325,50.55,22.214,65.061,21.705
	C275.127,403.262,273.017,391.966,272.271,387.267z M309.529,348.583c0.82-21.65,2.906-43.163,4.336-64.855
	c0.453-6.87-12.637-5.051-16.835-4.006c-2.76,0.687-7.324,2.459-8.886,7.106c-11.522,34.27-15.02,72.315-5.807,107.496
	c2.785,10.635,1.113,8.854,12.379,8.636c4.477-0.087,12.901,0.863,12.752-6.647C307.152,380.397,308.927,364.487,309.529,348.583z
	 M402.405,392.53c-0.786-29.797,0.104-58.215-5.107-88.078c-8.285,7.734-1.802,25.453-13.215,29.575
	c-5.828-23.29,18.605-47.305,7.986-71.131c-11.959,21.722-21.458,44.635-43.786,57.637c-4.955,2.886-15.033,5.626-16.562-2.068
	c-0.478-2.404,2.314-2.392,3.797-3.032c9.019-3.891,17.186-9.097,24.377-15.756c16.696-15.46,30.678-41.395,36.67-62.433
	c-13.671,10.062-25.172,16.76-36.365,22.073c-40.829,19.38-37.776,3.624-42.925,56.512c-2.651,27.231-1.721,54.626-3.444,81.9
	c-0.169,2.679,0.825,3.696,3.499,4.112c26.888,4.186,53.95,2.688,80.376-3.231C401.434,397.775,402.504,396.273,402.405,392.53z
	 M445.778,262.841c-3.322,2.749-11.765,13.999-13.424,4.406c-2.375-13.735-7.337-27.376-2.535-41.229
	c1.314-3.79-1.45-5.343-4.479-2.578c-19.839,18.113-9.916,33.373-18.237,35.825c-1.982,0.584-1.608,2.054-1.284,3.687
	c2.672,13.48,5.132,33.327,21.917,33.068C457.978,295.553,475.529,238.224,445.778,262.841z M449.256,212.915
	c-5.505,3.967-5.589,7.082-0.35,10.987c5.756,4.29,0.345,9.115-5.016,7.891c-8.894-2.03-8.557,3.469-8.514,10.704
	c0.029,4.85,1.364,20.464,8.952,15.152c11.264-7.885,22.94-13.991,36.831-16.453c4.003-0.709,5.542-7.306,4.148-9.487
	c-2.457-3.842-19.886-8.795-10.313-15.046c2.584-1.688,5.21-3.47,3.713-6.851C473.925,199.014,456.49,207.702,449.256,212.915z
	 M620.978,57.767c-54.751-1.121-109.41,1.663-164.107,3.397c-14.651,0.464-28.286-3.278-40.785-11.625
	C368.122,17.507,310.754,1.474,255.6,25.87c-16.284,7.203-31.87,15.704-46.517,25.724c-12.55,8.586-25.291,10.083-39.239,4.537
	c-29.367-11.676-61.18-14.971-92.096-20.265C54.41,31.87-17.208,17.559,31.13,57.198c40.366,33.102,39.329,82.699,96.314,104.043
	c19.241,7.207,38.948,12.146,59.352,12.605c7.573,0.17-1.614-5.851,0.566-9.839c13.683,12.57,23.65,32.066,45.954,27.807
	c12.324-2.353,23.538-9.051,36.33-7.729c-2.965,4.136-8.909,2.914-11.775,7.863c35.318,0.26,72.845,0.422,106.8-4.722
	c0.474-2.136-3.02-1.163-4.782-3.419c32.853,1.163,83.191-0.103,85.358-45.717c3.126-65.816,81.402-62.029,123.493-62.403
	c-29.578,14.816-66.487,1.536-93.044,23.586c-11.165,9.27-23.142,19.969-19.945,35.545c1.814,8.838-18.986,37.164-9.108,37.148
	c41.381-0.065,91.244-4.759,117.756-40.233c18.364-24.572,46.894-41.535,59.023-70.272C624.56,58.77,624.21,57.833,620.978,57.767z"
	/>
<path fill="#A05825" d="M252.698,336.753c-12.583,5.507-15.375,19.311-29.359,21.563c-18.618,2.998-6.953-28.412-3.383-36.914
	c26.011,3.451,26.386-19.158,33.51-38.147c1.126-3.002,2.511-7.963,6.548-8.046c5.95-0.123,23.253-0.002,21.141,8.531
	c-8.369,33.817-14.51,68.109-8.886,103.528c0.746,4.7,2.856,15.996-3.693,16.225c-14.512,0.509-78.433,4.62-65.061-21.705
	C214.12,360.911,245.252,362.19,252.698,336.753z M307.468,396.314c-0.316-15.917,1.459-31.827,2.061-47.73
	c0.82-21.65,2.906-43.163,4.336-64.855c0.453-6.87-12.637-5.051-16.835-4.006c-2.76,0.687-7.324,2.459-8.886,7.105
	c-11.522,34.27-15.02,72.314-5.807,107.496c2.785,10.635,1.113,8.854,12.379,8.636C299.194,402.874,307.618,403.824,307.468,396.314
	z M384.083,334.026c-5.828-23.29,18.605-47.306,7.986-71.131c-11.959,21.722-21.458,44.635-43.786,57.637
	c-4.955,2.886-15.033,5.626-16.562-2.068c-0.478-2.404,2.314-2.391,3.797-3.032c9.019-3.891,17.186-9.097,24.377-15.756
	c16.696-15.46,30.678-41.395,36.67-62.433c-13.671,10.062-25.172,16.76-36.365,22.073c-40.829,19.38-37.776,3.624-42.926,56.512
	c-2.651,27.231-1.721,54.626-3.444,81.9c-0.169,2.679,0.825,3.696,3.499,4.112c26.888,4.186,53.95,2.688,80.376-3.231
	c3.73-0.835,4.8-2.337,4.701-6.081c-0.786-29.797,0.104-58.215-5.107-88.078C389.013,312.185,395.496,329.904,384.083,334.026z
	 M445.778,262.841c-3.322,2.749-11.765,13.999-13.424,4.406c-2.375-13.735-7.337-27.376-2.535-41.229
	c1.314-3.79-1.45-5.343-4.479-2.578c-19.839,18.113-9.916,33.373-18.237,35.825c-1.982,0.584-1.608,2.054-1.284,3.687
	c2.672,13.48,5.132,33.327,21.917,33.068C457.978,295.553,475.529,238.224,445.778,262.841z M216.923,251.063
	c-5.23-2.036-22.33-13.418-25.779-8.702c-11.806,16.147,10.625,34.69,24.304,41.79c7.424,3.854,6.06-15.469,6.158-20.526
	C221.685,259.604,223.442,253.601,216.923,251.063z M233.393,256.6c-9.223-1.313-6.523,23.816-7.038,30.173
	c-0.478,5.901-0.336,11.8-1.205,17.653c-0.382,2.575-2.45,6.353-0.542,7.448c16.496-1.704,23.333-23.717,23.585-37.927
	C248.414,261.493,246.423,258.455,233.393,256.6z M208.507,306.72c5.034,2.846,10.048,0.683,10.624-5.214
	c1.088-11.133-12.993-13.845-19.979-19.821c-6.999-5.987-11.328-8.486-20.802-30.443C168.7,276.561,188.22,295.25,208.507,306.72z
	 M221.674,200.934c-6.466-0.178-17.329-1.595-24.663-7.822c-3.92-3.328-13.509-14.411-14.752-3.738
	c-4.451,38.228,44.281,63.172,78.094,66.33c7.281,0.68,7.169,0.367,5.846-6.941c-2.954-16.316-10.018-35.764,4.002-49.292
	C261.578,199.471,233.807,201.268,221.674,200.934z M438.494,204.69c7.835-4.813,13.349-11.284,7.816-19.583
	c-4.415-6.622-15.332,4.263-22.108,4.861c-48.162,4.25-95.88,7.925-143.756,15.456c-36.98,5.818,18.52,59.367-20.432,57.544
	C312.322,287.354,389.865,234.564,438.494,204.69z"/>
<path fill="#88BF68" d="M178.714,292.776c7.299,6.925,21.311,16.985,9.912,25.476C174.399,328.849,174.154,301.537,178.714,292.776z
	 M210.648,319.184c0.717-4.205-4.523-6.105-7.812-7.311c-5.294-1.942-5.28-1.53-5.787,4.759
	C196.291,326.034,209.033,328.649,210.648,319.184z M444.329,257.649c11.264-7.885,22.94-13.991,36.831-16.453
	c4.003-0.71,5.542-7.306,4.148-9.487c-2.457-3.842-19.886-8.795-10.313-15.046c2.584-1.688,5.21-3.47,3.713-6.851
	c-4.782-10.799-22.217-2.111-29.451,3.102c-5.505,3.967-5.589,7.082-0.35,10.987c5.756,4.29,0.345,9.115-5.016,7.891
	c-8.894-2.03-8.557,3.469-8.514,10.704C435.406,247.347,436.74,262.961,444.329,257.649z M445.248,138.092
	c3.126-65.816,81.402-62.029,123.493-62.403c-29.578,14.816-66.487,1.536-93.044,23.586c-11.165,9.27-23.142,19.969-19.945,35.545
	c1.814,8.838-18.986,37.164-9.108,37.148c41.381-0.065,91.244-4.759,117.756-40.233c18.364-24.572,46.894-41.535,59.023-70.272
	c1.137-2.693,0.788-3.63-2.444-3.696c-54.751-1.121-109.41,1.663-164.107,3.397c-14.651,0.464-28.286-3.278-40.785-11.625
	C368.122,17.507,310.754,1.474,255.6,25.87c-16.284,7.203-31.87,15.704-46.517,25.724c-12.55,8.586-25.291,10.083-39.239,4.537
	c-29.367-11.676-61.18-14.971-92.096-20.265C54.41,31.87-17.208,17.559,31.13,57.198c40.366,33.102,39.329,82.699,96.314,104.043
	c19.241,7.207,38.948,12.146,59.352,12.605c7.573,0.17-1.614-5.851,0.567-9.839c13.683,12.57,23.65,32.066,45.954,27.807
	c12.324-2.353,23.538-9.051,36.33-7.729c-2.965,4.136-8.909,2.914-11.775,7.863c35.318,0.26,72.845,0.422,106.8-4.722
	c0.474-2.137-3.02-1.163-4.782-3.419C392.742,184.971,443.081,183.706,445.248,138.092z M159.277,92.742
	c-27.464-25.531-68.8-23.983-98.701-45.591c29.464,3.571,57.677,16.989,86.568,24.4c12.915,3.981,23.101,11.704,31.325,22.338
	c14.379,16.383,0.322,36.006,2.028,54.694C169.345,131.056,176.264,107.511,159.277,92.742z"/>
<path d="M408.895,110.209c-19.489-14.061-45.027-9.548-58.943,10.208c-4.994,7.09-7.701,14.714-8.774,22.794
	c4.213,2.443,7.75,4.452,11.246,6.529c17.704,10.516,36.083,10.904,54.319,2.259c6.691-3.172,20.008-16.871,19.517-17.943
	C422.102,124.962,417.341,116.302,408.895,110.209z M218.402,110.209c-8.446,6.093-13.207,14.753-17.365,23.846
	c-0.49,1.072,12.826,14.771,19.517,17.943c18.235,8.645,36.615,8.257,54.319-2.259c3.496-2.077,7.033-4.085,11.246-6.529
	c-1.074-8.08-3.78-15.704-8.774-22.794C263.429,100.661,237.892,96.147,218.402,110.209z M354.817,58.069
	c-1.734,3.019-3.228,6.125-4.525,9.309c-1.282,3.19-2.38,6.457-3.238,9.831c-0.859,3.377-1.49,6.833-2.088,10.464
	c-1.085-3.526-1.341-7.282-1.025-10.98c0.317-3.703,1.19-7.378,2.605-10.834c1.401-3.462,3.333-6.707,5.688-9.581
	c2.352-2.871,5.15-5.388,8.383-7.163C358.512,52.13,356.554,55.047,354.817,58.069z M312.295,55.942
	c0.183,4.165,0.453,8.325,0.769,12.498c0.319,4.174,0.696,8.355,1.388,12.578c0.991-4.164,1.495-8.377,1.767-12.595
	c0.27-4.219,0.321-8.45,0.114-12.669c-0.193-4.22-0.633-8.428-1.297-12.603c-0.665-4.175-1.556-8.322-2.925-12.377
	c-0.291,4.268-0.275,8.466-0.206,12.652C311.975,47.611,312.097,51.778,312.295,55.942z M277.006,67.378
	c1.282,3.19,2.38,6.457,3.237,9.831c0.859,3.377,1.491,6.833,2.088,10.464c1.085-3.526,1.341-7.282,1.025-10.98
	c-0.317-3.703-1.19-7.378-2.605-10.834c-1.401-3.462-3.333-6.707-5.688-9.581c-2.352-2.871-5.15-5.388-8.383-7.163
	c2.106,3.017,4.063,5.934,5.801,8.955C274.215,61.088,275.709,64.194,277.006,67.378z M196.753,112.529
	c11.514-31.392,78.522-31.273,86.489,3.275l-0.632,0.289c-17.932-22.989-68.922-31.835-85.202-3.334L196.753,112.529z
	 M430.544,112.529c-11.521-31.407-78.537-31.255-86.489,3.275l0.632,0.289c17.953-23.002,68.915-31.826,85.202-3.334
	L430.544,112.529z M291.37,175.691c10.602-13.383,33.972-13.422,44.558,0C321.329,169.783,305.965,169.772,291.37,175.691z
	 M330.14,134.719c-6.424-8.844-26.558-8.844-32.982,0c-10.376,13.943,23.094,17.218,10.577,11.744
	c-14.876-6.506-4.42-12.149,5.914-12.238c10.334,0.089,20.79,5.732,5.914,12.238C307.045,151.937,340.516,148.662,330.14,134.719z"
	/>
<g>
	<path fill="#F2F2F3" d="M370.406,130.231c-4.294,1.987-8.896,1.176-10.279-1.811c-1.382-2.987,0.978-7.02,5.273-9.007
		c4.294-1.987,8.896-1.176,10.279,1.811C377.061,124.211,374.701,128.244,370.406,130.231z"/>
	<path fill="#F2F2F3" d="M230.749,129.494c-4.514,2.089-9.351,1.236-10.804-1.904c-1.453-3.14,1.028-7.379,5.542-9.468
		c4.514-2.089,9.351-1.236,10.804,1.904C237.744,123.167,235.263,127.406,230.749,129.494z"/>
</g>
<g>
</g>
<g>
</g>
<g>
</g>
<g>
</g>
<g>
</g>
</svg>
