<?xml version="1.0" encoding="iso-8859-1"?>
<!-- Uploaded to: SVG Repo, www.svgrepo.com, Generator: SVG Repo Mixer Tools -->
<svg height="800px" width="800px" version="1.1" id="Layer_1" xmlns="http://www.w3.org/2000/svg" xmlns:xlink="http://www.w3.org/1999/xlink" 
	 viewBox="0 0 512 512" xml:space="preserve">
<path style="fill:#90C8EC;" d="M258.184,94.835h-4.368c-8.679,0-15.716,7.036-15.716,15.716v226.017
	c1.514-0.486,3.126-0.753,4.802-0.753h26.194c1.676,0,3.289,0.268,4.803,0.753V229.007v-26.406v-92.049
	C273.9,101.872,266.862,94.835,258.184,94.835z"/>
<g style="opacity:0.1;">
	<path style="fill:#231F20;" d="M256.001,110.552c0-6.253,3.661-11.637,8.95-14.168c-2.051-0.982-4.341-1.548-6.766-1.548h-4.368
		c-8.679,0-15.716,7.036-15.716,15.716v226.017c1.514-0.486,3.126-0.753,4.802-0.753h13.097V110.552z"/>
	<path style="fill:#231F20;" d="M269.096,335.815c1.676,0,3.289,0.268,4.803,0.753v-0.753H269.096z"/>
</g>
<g>
	<path style="fill:#90C8EC;" d="M392.205,149.131h-41.752c-4.465,0-8.084-3.62-8.084-8.084c0-4.465,3.62-8.084,8.084-8.084h41.752
		c4.465,0,8.084,3.62,8.084,8.084C400.289,145.511,396.671,149.131,392.205,149.131z"/>
	<path style="fill:#90C8EC;" d="M161.548,155.618h-41.753c-4.465,0-8.084-3.62-8.084-8.084c0-4.465,3.62-8.084,8.084-8.084h41.753
		c4.465,0,8.084,3.62,8.084,8.084C169.633,151.999,166.013,155.618,161.548,155.618z"/>
	<path style="fill:#90C8EC;" d="M320.494,83.292c-2.07,0-4.138-0.789-5.716-2.368c-3.158-3.157-3.158-8.276,0-11.432l29.525-29.525
		c3.156-3.157,8.276-3.157,11.431,0c3.158,3.157,3.158,8.276,0,11.432l-29.525,29.525C324.632,82.503,322.563,83.292,320.494,83.292
		z"/>
	<path style="fill:#90C8EC;" d="M161.982,250.98c-2.07,0-4.138-0.789-5.716-2.368c-3.157-3.157-3.157-8.276,0-11.432l29.525-29.524
		c3.157-3.157,8.276-3.157,11.432,0c3.157,3.157,3.157,8.276,0,11.432l-29.525,29.524C166.12,250.19,164.05,250.98,161.982,250.98z"
		/>
	<path style="fill:#90C8EC;" d="M252.756,57.922c-4.465,0-8.084-3.62-8.084-8.084V8.084c0-4.465,3.62-8.084,8.084-8.084
		s8.084,3.62,8.084,8.084v41.753C260.84,54.302,257.22,57.922,252.756,57.922z"/>
	<path style="fill:#90C8EC;" d="M186.918,87.88c-2.07,0-4.138-0.789-5.716-2.368l-29.524-29.525c-3.157-3.157-3.157-8.276,0-11.432
		c3.157-3.157,8.276-3.158,11.432,0l29.524,29.525c3.157,3.157,3.157,8.276,0,11.432C191.056,87.091,188.986,87.88,186.918,87.88z"
		/>
	<path style="fill:#90C8EC;" d="M354.606,246.392c-2.07,0-4.138-0.789-5.717-2.368l-29.524-29.525
		c-3.157-3.157-3.157-8.276,0.001-11.432c3.157-3.157,8.276-3.157,11.433,0l29.523,29.525c3.157,3.157,3.157,8.276,0,11.432
		C358.744,245.603,356.674,246.392,354.606,246.392z"/>
</g>
<path style="fill:#427C99;" d="M269.096,333.659h-26.193c-8.679,0-15.716,7.035-15.716,15.716v20.082v71.595v20.081
	c0,8.679,7.036,15.716,15.716,15.716h26.194c8.68,0,15.716-7.036,15.716-15.716v-20.081v-71.595v-20.082
	C284.812,340.694,277.777,333.659,269.096,333.659z"/>
<path style="fill:#578CAD;" d="M269.096,333.659h-26.193c-8.679,0-15.716,7.035-15.716,15.716v19.209h57.625v-19.209
	C284.812,340.694,277.777,333.659,269.096,333.659z"/>
<path style="fill:#427C99;" d="M273.9,512H238.1c-4.465,0-8.084-3.62-8.084-8.084s3.62-8.084,8.084-8.084H273.9
	c4.466,0,8.084,3.62,8.084,8.084S278.365,512,273.9,512z"/>
<g>
	<path style="opacity:0.1;fill:#231F20;enable-background:new    ;" d="M245.087,461.134v-20.081v-71.595v-20.082
		c0-8.68,7.036-15.716,15.716-15.716h-17.9c-8.679,0-15.716,7.035-15.716,15.716v20.082v71.595v20.081
		c0,8.679,7.036,15.716,15.716,15.716h17.9C252.124,476.85,245.087,469.813,245.087,461.134z"/>
	<path style="opacity:0.1;fill:#231F20;enable-background:new    ;" d="M247.917,503.916c0-4.465,3.62-8.084,8.084-8.084h-17.9
		c-4.465,0-8.084,3.62-8.084,8.084s3.62,8.084,8.084,8.084h17.9C251.536,512,247.917,508.38,247.917,503.916z"/>
</g>
</svg>